<?xml version="1.0" standalone="no"?>
<!DOCTYPE svg PUBLIC "-//W3C//DTD SVG 20010904//EN"
 "http://www.w3.org/TR/2001/REC-SVG-20010904/DTD/svg10.dtd">
<svg version="1.0" xmlns="http://www.w3.org/2000/svg"
 width="260.000000pt" height="260.000000pt" viewBox="0 0 260.000000 260.000000"
 preserveAspectRatio="xMidYMid meet">
<metadata>
Created by potrace 1.11, written by Peter Selinger 2001-2013
</metadata>
<g transform="translate(0.000000,260.000000) scale(0.100000,-0.100000)"
fill="#000000" stroke="none">
<path d="M0 1945 l0 -655 49 0 48 0 5 -63 c9 -113 76 -217 173 -268 31 -17 43
-29 39 -39 -3 -8 -62 -113 -132 -232 -95 -163 -134 -221 -155 -230 l-27 -13 0
-222 0 -223 638 0 637 0 -3 60 -4 60 51 0 51 0 0 -60 0 -60 615 0 615 0 0 234
c0 218 -1 234 -18 238 -12 4 -63 88 -142 234 -112 207 -121 229 -105 239 109
62 184 172 193 281 l5 64 33 0 34 0 0 655 0 655 -1300 0 -1300 0 0 -655z
m1660 -160 c52 -10 120 -25 150 -35 54 -18 46 -18 -505 -18 -384 -1 -552 2
-535 9 40 16 148 40 250 54 134 20 512 13 640 -10z m59 -111 c151 -2 283 -6
293 -10 14 -4 18 -16 18 -60 l0 -54 -710 0 -710 0 0 60 c0 33 1 61 3 62 6 6
615 14 717 10 63 -2 238 -6 389 -8z m-1260 -85 c-152 -16 -292 -111 -338 -231
-11 -29 -20 -46 -20 -37 -2 32 62 140 102 175 43 37 141 88 187 97 14 2 52 4
85 4 60 0 60 0 -16 -8z m1734 4 c-13 -2 -35 -2 -50 0 -16 2 -5 4 22 4 28 0 40
-2 28 -4z m60 -10 c-7 -2 -19 -2 -25 0 -7 3 -2 5 12 5 14 0 19 -2 13 -5z m82
-31 c-3 -3 -11 0 -18 7 -9 10 -8 11 6 5 10 -3 15 -9 12 -12z m-1804 -251 c35
-29 14 -43 -76 -50 -84 -7 -94 1 -50 44 31 31 92 34 126 6z m1692 -8 c9 -9 17
-20 17 -24 0 -12 -70 -29 -122 -29 -54 0 -62 14 -25 47 38 36 94 38 130 6z
m-573 -58 l0 -55 -290 0 -290 0 0 55 0 55 290 0 290 0 0 -55z m-280 -410 l0
-85 -50 0 -50 0 0 85 0 85 50 0 50 0 0 -85z m0 -395 l0 -180 -50 0 -50 0 0
180 0 180 50 0 50 0 0 -180z"/>
</g>
</svg>
